<svg width="19" height="24" viewBox="0 0 19 24" fill="none" xmlns="http://www.w3.org/2000/svg">
<g clip-path="url(#clip0_6_1439)">
<path d="M9.14243 21.1064C8.98271 21.1064 8.82961 21.0428 8.71628 20.9301L0.211935 12.4257C0.0992681 12.3124 0.0356445 12.1593 0.0356445 11.9996C0.0356445 11.8399 0.0992681 11.6868 0.211935 11.5735L8.71628 3.06977C8.95156 2.83449 9.33264 2.83449 9.56791 3.06977L18.0723 11.5741C18.1849 11.6874 18.2486 11.8405 18.2486 12.0003C18.2486 12.16 18.1849 12.3131 18.0723 12.4264L9.56791 20.9308C9.45525 21.0434 9.30149 21.107 9.14177 21.107L9.14243 21.1064ZM1.48971 11.9996L9.14177 19.6523L16.7945 11.9996L9.14177 4.34754L1.48971 11.9996Z" fill="#948667"/>
<path d="M9.14246 23.9998C9.03708 23.9998 8.93568 23.9581 8.86145 23.8832L1.25645 16.2782C1.10137 16.1231 1.10137 15.8712 1.25645 15.7162C1.41153 15.5611 1.66337 15.5611 1.81912 15.7162L9.14246 23.0395L16.4658 15.7162C16.6209 15.5611 16.8727 15.5611 17.0285 15.7162C17.1835 15.8712 17.1835 16.1231 17.0285 16.2782L9.42346 23.8832C9.34923 23.9581 9.24783 23.9998 9.14246 23.9998Z" fill="#948667"/>
<path d="M17.1279 8.78063C17.0258 8.78063 16.9244 8.74152 16.8468 8.66398L9.14243 0.960231L1.43802 8.66398C1.28293 8.81907 1.03109 8.81907 0.875345 8.66398C0.720263 8.5089 0.720263 8.25706 0.875345 8.10198L8.86143 0.116556C9.01651 -0.0385265 9.26835 -0.0385265 9.4241 0.116556L17.4095 8.10198C17.5646 8.25706 17.5646 8.5089 17.4095 8.66398C17.332 8.74152 17.2299 8.78063 17.1285 8.78063H17.1279Z" fill="#948667"/>
</g>
<defs>
<clipPath id="clip0_6_1439">
<rect width="18.2136" height="24" fill="white" transform="translate(0.0356445)"/>
</clipPath>
</defs>
</svg>
