<svg width="25" height="32" viewBox="0 0 25 32" fill="none" xmlns="http://www.w3.org/2000/svg">
<g clip-path="url(#clip0_6_1434)">
<path d="M12.1424 28.142C11.9294 28.142 11.7253 28.0572 11.5742 27.9069L0.235054 16.5678C0.0848314 16.4167 0 16.2126 0 15.9996C0 15.7867 0.0848314 15.5825 0.235054 15.4314L11.5742 4.09318C11.8879 3.77949 12.396 3.77949 12.7097 4.09318L24.0488 15.4323C24.199 15.5834 24.2839 15.7875 24.2839 16.0005C24.2839 16.2135 24.199 16.4176 24.0488 16.5687L12.7097 27.9078C12.5595 28.0581 12.3545 28.1429 12.1415 28.1429L12.1424 28.142ZM1.93875 15.9996L12.1415 26.2033L22.3451 15.9996L12.1415 5.79688L1.93875 15.9996Z" fill="#F3DCC2"/>
<path d="M12.1424 32C12.0019 32 11.8667 31.9443 11.7677 31.8445L1.62774 21.7045C1.42096 21.4977 1.42096 21.1619 1.62774 20.9551C1.83452 20.7484 2.17031 20.7484 2.37797 20.9551L12.1424 30.7196L21.9069 20.9551C22.1136 20.7484 22.4494 20.7484 22.6571 20.9551C22.8639 21.1619 22.8639 21.4977 22.6571 21.7045L12.5171 31.8445C12.4181 31.9443 12.2829 32 12.1424 32Z" fill="#948667"/>
<path d="M22.7896 11.7077C22.6535 11.7077 22.5183 11.6555 22.4149 11.5521L12.1423 1.28047L1.86979 11.5521C1.66301 11.7589 1.32722 11.7589 1.11956 11.5521C0.912783 11.3454 0.912783 11.0096 1.11956 10.8028L11.7677 0.155571C11.9744 -0.0512059 12.3102 -0.0512059 12.5179 0.155571L23.1651 10.8028C23.3719 11.0096 23.3719 11.3454 23.1651 11.5521C23.0617 11.6555 22.9257 11.7077 22.7905 11.7077H22.7896Z" fill="#948667"/>
</g>
<defs>
<clipPath id="clip0_6_1434">
<rect width="24.2848" height="32" fill="white"/>
</clipPath>
</defs>
</svg>
