<?xml version="1.0" encoding="utf-8"?>
<!-- Generator: Adobe Illustrator 25.3.0, SVG Export Plug-In . SVG Version: 6.00 Build 0)  -->
<svg version="1.1" id="Layer_1" xmlns="http://www.w3.org/2000/svg" xmlns:xlink="http://www.w3.org/1999/xlink" x="0px" y="0px"
	 viewBox="0 0 1200 1200" style="enable-background:new 0 0 1200 1200;" xml:space="preserve">
<style type="text/css">
	.st0{fill:#948667;}
	.st1{fill:#F3DCC2;}
</style>
<g>
	<path class="st0" d="M-0.21,601.52c0-110.43-0.2-220.85,0.05-331.28C0.17,122.07,114.92,2.67,262.92,1.42
		c223.94-1.89,447.91-1.87,671.85-0.08c145.43,1.17,262.45,117.08,263.85,262.29c2.17,223.81,2.28,447.68,0.03,671.49
		c-1.52,150.3-120.52,264.33-270.73,264.59c-219.97,0.38-439.94,0.4-659.91-0.01C117.21,1199.43,0.06,1081.15-0.18,929.81
		C-0.35,820.38-0.21,710.95-0.21,601.52z M45.43,599.18c0,109.49-0.42,218.97,0.11,328.45c0.64,132.53,93.21,225.88,225.25,226.23
		c219.08,0.58,438.17,0.55,657.25,0.01c131.4-0.32,224.96-95.14,225.02-226.63c0.1-216.98-2.61-434,1.04-650.92
		c2.12-126-103.2-232.27-229.51-230.19c-216.04,3.55-432.25,4.27-648.25-0.32C156.94,43.26,40.1,141.84,44.69,276.72
		C48.34,384.09,45.43,491.68,45.43,599.18z"/>
	<path class="st0" d="M600.09,1064.13c-93.57,0.01-187.25-2.93-280.66,0.85c-90.56,3.67-183.99-66.79-184.63-181.25
		c-1.07-190.01-1.3-380.04,0.12-570.05c0.77-102.35,75.76-177.15,177.8-177.83c192.1-1.28,384.21-1.32,576.31-0.01
		c105.42,0.72,176.84,75.04,176.92,180.02c0.15,190.02,0.19,380.04-0.03,570.05c-0.12,102.42-73.82,177.22-176.18,178.03
		C793.2,1064.72,696.64,1064.12,600.09,1064.13z M1044.61,734.23c0.53-113.41,0.98-226.81,1.69-340.22
		c0.09-14.62-8.67-23.65-17.94-32.9c-62.73-62.56-125.59-125.01-187.91-187.99c-12.01-12.14-24.64-17.91-42.06-17.84
		c-132.43,0.55-264.87,0.46-397.31,0.09c-13.91-0.04-24.45,3.65-34.41,13.68c-65.23,65.7-130.87,130.98-196.58,196.2
		c-8.18,8.12-12.91,16.48-12.83,28.63c0.7,111.44,0.88,222.89,1.22,334.33c-0.33,19.86,0.73,39.87-1.34,59.55
		c-2.51,23.96,6.32,40.56,23.46,57.16c62.11,60.17,122.85,121.77,183.68,183.24c10.36,10.47,20.71,16.23,36.22,16.16
		c134.24-0.58,268.48-0.49,402.72-0.09c13.92,0.04,24.34-3.7,34.25-13.72c65.03-65.71,130.5-130.99,196-196.23
		c8.13-8.1,13.48-16.47,12.92-28.63C1045.28,781.87,1045.15,758.04,1044.61,734.23z M339.32,1040.15
		c-14.15-23.4-160.04-168.42-180.66-179.58C151.05,977.85,235.39,1061.69,339.32,1040.15z M337.32,157.1
		c-113.38-8.67-192.83,73.02-177.91,175.76C216.74,276.22,276.79,216.9,337.32,157.1z M864.09,1043.15
		c125.92,15.13,200.09-100.93,177.84-178.7C983.41,923.25,923.81,983.14,864.09,1043.15z M1042.39,338.06
		c19.31-115.33-89.59-200.94-177.81-178.96C922.72,217.63,981.87,277.16,1042.39,338.06z"/>
	<path class="st1" d="M905.69,806.97c-1.11,2.64-2.05,5.38-3.36,7.92c-6.35,12.33-16.58,18.75-30.36,19.58
		c-1.83,0.11-3.68,0.02-5.52,0.02c-163.25,0-326.51,0-489.76-0.01c-17.33,0-31.09-9.85-35.35-25.19
		c-6.08-21.93,9.66-42.98,32.89-43.97c1.1-0.05,2.21-0.01,3.31-0.01c163.62,0,327.24,0,490.86,0c17.41,0,30.37,8.65,35.59,23.44
		c0.58,1.64-0.18,3.78,1.7,4.96C905.69,798.14,905.69,802.56,905.69,806.97z"/>
	<path class="st1" d="M905.69,452.42c-1.7,1.38-1.54,3.57-2.27,5.36c-5.43,13.44-17.9,21.77-33.34,21.91
		c-13.07,0.12-26.14,0.02-39.2,0.02c-151.11,0-302.21,0-453.32,0c-18.5,0-32.14-9.8-36.33-26.01c-5.5-21.27,10.18-42.34,32.12-43.13
		c2.02-0.07,4.05-0.03,6.07-0.03c161.6,0,323.19,0,484.79,0c24.01,0,33.64,6.65,41.48,28.63C905.69,443.58,905.69,448,905.69,452.42
		z"/>
	<path class="st1" d="M905.69,630.25c-0.17,0.06-0.47,0.08-0.5,0.19c-6.58,19.79-20.69,26.69-40.97,26.65
		c-161.99-0.34-323.97-0.25-485.96-0.1c-15.87,0.01-27.99-5.6-34.92-20.13c-10.58-22.16,5.34-47.8,29.93-48.66
		c1.29-0.05,2.58-0.07,3.86-0.07c163.83,0,327.65,0.04,491.48-0.07c16-0.01,27.43,6.58,34.5,20.92c1.1,2.24,0.68,5,2.58,6.91
		C905.69,620.67,905.69,625.46,905.69,630.25z"/>
</g>
</svg>
